<?xml version="1.0" standalone="no"?>
<!DOCTYPE svg PUBLIC "-//W3C//DTD SVG 1.1//EN" "http://www.w3.org/Graphics/SVG/1.1/DTD/svg11.dtd">
<svg xmlns="http://www.w3.org/2000/svg" version="1.1">
<g transform="scale(1,-1) translate(0,-1000)">
  <path d="M -10.505207 34.971294 L -13.95151008553161 30.51181068468482 L -15.78470664475666 26.75192424449346 L -16.20386290844558 23.67206738864523 L -15.40804170557211 21.25267430458896 L -12.37167708983748 18.81915403565881 L -7.7213415873148 17.76161955766028 L -2.128872245790443 18.0140362532332 L 3.733893886949194 19.5103695050174 L 9.195119763117713 22.1845846956527 L 13.58628772026661 25.96939509312888 L 16.50667579633676 30.69649799845726 L 18.01581684334889 36.02397670378666 L 18.01407402887832 43.44064157348739 L 15.93866907717524 50.43530204230265 L 12.03992603642889 56.16752533849213 L 6.629488910320491 60.19729679715211 L 0.0975801565244036 62.59771751697698 L -7.160433320621533 63.47548173248761 L -18.5440347893824 62.17054074817859 L -29.34865026463782 58.04254028663407 L -38.62384877726799 51.54612866774417 L -45.86960858421687 43.24688149231199 L -50.61283881881355 33.71700692707645 L -52.38044861438707 23.52871313877643 L -50.76132324238155 13.24895246194721 L -46.00861466778116 3.388344674983577 L -38.77877195941504 -5.576691701986283 L -29.73391683788813 -13.17021921310809 L -19.53617102380539 -18.91630040252757 L -8.847656237771737 -22.33899781439046 L 1.669505799607841 -22.96237399284247 L 11.38557552705945 -20.3687004408294 L 20.00599258699315 -14.74275426502889 L 27.43433472858758 -6.625478224190072 L 33.57675616497104 3.437553567679605 L 38.33941110927183 14.90076699657266 L 41.62845377461824 27.21858794848165 L 43.35003837413855 39.84544230939908 L 43.41031912096108 52.23575596531749 L 41.71545022821411 63.84395480222947 L 38.17158590902593 74.12446470612748 L 32.68491612941103 82.53176231103505 L 25.26169912819667 88.66236223303776 L 16.22695202856829 92.56522887501125 L 5.96902156704968 94.37921737373214 L -5.123745519835408 94.24318286597708 L -18.1174619499842 91.93214808719764 L -31.12332813998502 87.5265598223733 L -43.58840508412334 81.22412392054741 L -54.95975377668468 73.22254623076324 L -64.6844352119545 63.71953260206411 L -72.22651077177978 52.91657657593789 L -77.39734069741324 41.09255000427949 L -80.33290785804034 28.59865077688763 L -81.1484104871911 14.18304570431583 L -79.53413520942341 -0.1283713193397287 L -75.70143724652445 -13.83160260822847 L -69.86167182028157 -26.42265047649984 L -62.22619415248205 -37.39751723830324 L -53.00636508830262 -46.2522658472876 L -42.43753213008376 -52.74161800678416 L -30.83389531835468 -57.47059726910565 L -14.32371039161795 -62.38481202898704 L 2.655664137111652 -67.40291557207505 L 19.32088656445374 -74.37191493852248 L 31.05280716397967 -81.71671128543358 L 41.4317495997982 -90.74117153762967 L 49.77645918555229 -101.1545224548461 L 55.40568123488482 -112.6659907968183 L 57.58607241180593 -123.5836132564955 L 56.92342855889915 -134.8621401271584 L 53.66718043646431 -146.1314312216067 L 48.09655788510952 -157.0145537928603 L 40.49079074544294 -167.134575093939 L 31.12910885807267 -176.1145623778627 L 19.52251933251079 -184.0119484773567 L 6.575207203497559 -189.7270372972002 L -7.321279397113508 -192.9136526438675 L -21.66634332671577 -193.4560309983929 L -35.84551028060853 -191.4790230510376 L -47.05773522965258 -188.0682809551599 L -57.31280548734832 -183.1929157967333 L -66.2279460696473 -176.9826009600857 L -73.42038199250106 -169.5670098295446 L -78.50733827186122 -161.0758157894378 L -81.11102583481811 -151.6415942987822 L -81.10507190925547 -141.543258940694 L -78.72757860944767 -131.2718677415393 L -74.24522771340845 -121.3351136649012 L -67.92470099915151 -112.2406896743625 L -60.03268433106784 -104.4962751697888 L -50.85969946387159 -98.53043221513054 L -40.77624204529786 -94.50626933881659 L -30.16956170952531 -92.53128435973678 L -19.42690809073259 -92.71297509678081 L -8.935530823098394 -95.15883936883842 L 0.9172853982351755 -99.9762527999319 L 9.693729653763451 -107.0964964440308 L 16.80454929566852 -115.9230449264271 L 21.63223790960894 -125.7609025249622 L 23.55928908124326 -135.9150735174777 L 21.97158282966855 -145.6908390972286 L 17.45786860942503 -153.5293019607644 L 10.57250555737319 -160.1400427539048 L 1.929952523332178 -165.120653356115 L -7.855331642878891 -168.0687256468598 L -18.16888809144087 -168.5818515056041 L -28.3869389139183 -166.3277345291185 L -38.86663378728819 -161.0091391057691 L -47.20112931587667 -153.9029726484806 L -50.21643783200936 -150.0579019233052 L -52.27845911930441 -146.2199604090802 L -53.24819738021442 -142.5404887622841 L -52.98665681719194 -139.1708276393951 L -50.48237380140729 -135.4214500671393 L -45.21257549399041 -132.8506302235179 L -37.94029399759624 -131.844868394083 L -27.99119244377751 -132.3057062896709 L -15.13387245352554 -134.4850938483747 " fill="none" stroke="black" />
</g>
</svg>

